<?xml version="1.0" standalone="no"?>
<!DOCTYPE svg PUBLIC "-//W3C//DTD SVG 20010904//EN"
 "http://www.w3.org/TR/2001/REC-SVG-20010904/DTD/svg10.dtd">
<svg version="1.0" xmlns="http://www.w3.org/2000/svg"
 width="302.000000pt" height="285.000000pt" viewBox="0 0 302.000000 285.000000"
 preserveAspectRatio="xMidYMid meet">

<g transform="translate(0.000000,285.000000) scale(0.100000,-0.100000)"
fill="#000000" stroke="none">
<path d="M1432 2465 c-157 -28 -367 -110 -356 -138 4 -12 24 -7 104 24 181 72
249 84 470 84 170 0 207 -3 287 -24 94 -23 137 -45 60 -30 -82 15 -321 21
-427 11 -58 -6 -148 -22 -201 -36 -113 -28 -249 -88 -249 -109 0 -14 -31 -27
-72 -32 -26 -3 -166 -112 -248 -195 -169 -169 -270 -394 -301 -670 -22 -198
-28 -200 -24 -10 3 205 24 321 84 475 17 43 29 80 27 82 -5 6 -56 -114 -87
-205 -112 -332 -78 -673 96 -963 25 -41 45 -77 45 -81 0 -3 -23 -14 -51 -23
-28 -9 -48 -22 -46 -28 3 -11 170 -155 226 -197 l24 -17 -84 -28 c-116 -38
-331 -134 -471 -211 -117 -63 -230 -134 -215 -134 5 0 74 20 153 45 262 81
619 174 787 204 57 10 58 10 114 -26 131 -84 324 -154 461 -167 51 -5 46 -3
-48 23 -58 16 -134 42 -170 56 -70 29 -200 93 -200 99 0 2 39 -11 88 -29 196
-74 467 -112 660 -94 232 21 418 91 589 220 59 45 65 48 105 41 l41 -7 -49
-41 c-189 -156 -381 -230 -733 -280 -18 -3 -31 -8 -28 -10 7 -7 183 13 280 32
182 36 369 121 505 230 75 60 79 62 119 55 l42 -8 16 71 c13 51 32 93 70 151
183 278 236 561 160 860 -86 341 -418 735 -768 911 -101 51 -261 102 -374 119
-119 18 -312 18 -411 0z m381 -261 c36 -8 17 -24 -30 -24 -17 0 -35 -4 -38
-10 -4 -6 6 -10 22 -10 49 0 102 -20 139 -52 19 -17 33 -32 31 -34 -1 -2 -25
8 -51 21 -56 28 -108 40 -133 31 -13 -5 -3 -13 38 -30 73 -30 124 -61 149 -93
25 -32 26 -52 1 -29 -19 17 -156 78 -201 89 l-26 6 1 -148 c0 -82 -2 -152 -5
-155 -3 -3 -16 -3 -29 1 -16 4 -20 10 -15 22 4 9 9 69 12 134 5 134 0 147 -59
147 -36 0 -57 -13 -187 -113 -17 -13 -5 18 21 56 24 35 113 87 150 87 15 0 27
5 27 10 0 17 -77 11 -132 -10 -28 -11 -54 -18 -56 -16 -2 2 18 17 45 33 38 22
60 28 107 28 l58 -1 -27 23 c-14 13 -36 23 -48 23 -18 0 -19 2 -7 10 28 18 68
11 88 -15 13 -17 23 -22 27 -15 12 20 69 50 85 45 8 -2 28 -7 43 -11z m867
-254 c17 -40 6 -75 -33 -103 -46 -34 -130 -67 -188 -74 -43 -5 -49 -4 -50 13
-4 59 21 84 145 145 55 27 102 49 106 49 4 0 13 -13 20 -30z m-1730 -195 c45
-15 46 -16 132 -178 47 -89 116 -222 153 -296 l67 -134 -24 -18 c-32 -25 -153
-45 -184 -30 -13 5 -38 35 -55 66 -22 38 -36 54 -46 51 -8 -3 -58 -6 -111 -6
l-97 0 -30 -58 c-40 -77 -65 -88 -159 -73 -39 7 -74 15 -79 20 -9 9 148 482
199 599 36 83 104 99 234 57z m1675 -20 c20 -8 39 -25 45 -39 14 -38 42 -375
35 -422 -9 -61 -41 -87 -109 -86 -85 1 -91 7 -94 99 -3 92 -30 391 -38 415 -3
12 4 19 28 26 77 25 91 25 133 7z m-302 -38 c73 -43 87 -81 98 -256 5 -80 16
-168 23 -194 l14 -49 -34 -14 c-43 -18 -104 -18 -131 1 -18 13 -25 12 -64 -8
-36 -18 -61 -22 -139 -22 -111 0 -160 19 -198 75 -20 29 -23 45 -20 93 5 71
27 104 94 137 42 21 65 25 161 28 l111 4 -10 29 c-22 65 -91 78 -200 39 -90
-33 -128 -18 -152 57 -6 19 1 26 56 54 89 46 149 59 253 56 79 -2 97 -7 138
-30z m-612 -27 c52 -19 109 -64 109 -85 0 -6 -15 -26 -34 -44 -41 -40 -98 -51
-144 -27 -17 9 -52 16 -77 16 -39 0 -52 -5 -77 -31 -29 -28 -30 -34 -25 -88 2
-32 12 -70 21 -84 37 -55 128 -61 192 -12 47 36 100 42 142 16 38 -24 40 -46
10 -91 -35 -51 -88 -88 -148 -103 -54 -14 -80 -37 -40 -37 37 0 99 -38 106
-65 15 -59 -19 -121 -83 -154 -12 -6 -53 -11 -91 -11 -55 0 -76 5 -103 23 -37
25 -50 67 -28 93 10 13 14 13 28 0 28 -25 100 -39 131 -26 31 13 46 38 31 53
-5 5 -35 14 -67 20 -62 13 -68 21 -50 73 6 19 2 22 -31 27 -52 9 -127 58 -157
104 -36 54 -60 155 -52 217 20 157 119 235 298 236 64 0 102 -5 139 -20z
m1229 -414 c18 -185 -13 -377 -85 -532 -19 -42 -37 -75 -40 -73 -2 3 3 31 11
64 9 32 14 70 11 83 -2 13 4 47 15 75 33 87 58 226 64 365 4 73 9 131 11 129
2 -2 8 -52 13 -111z m-1348 -502 c60 -31 91 -108 67 -165 -40 -99 -218 -90
-272 14 -17 33 -18 44 -9 76 27 88 122 121 214 75z m-231 5 c20 -10 20 -12 4
-29 -15 -17 -16 -32 -10 -115 9 -123 2 -126 -104 -51 -43 31 -82 56 -85 56
-14 0 -5 -71 9 -76 20 -8 19 -30 -1 -38 -26 -10 -92 -7 -99 5 -4 5 1 19 10 29
22 25 11 135 -16 159 -25 21 -24 37 4 45 47 12 74 5 139 -39 37 -25 70 -45 73
-45 13 0 3 50 -12 58 -23 14 -9 40 24 45 15 2 32 5 36 6 5 0 17 -4 28 -10z
m456 -5 c3 -8 1 -20 -6 -27 -12 -12 -15 -47 -3 -47 12 0 36 44 33 59 -1 8 3
18 11 22 17 11 99 11 117 0 20 -13 5 -41 -22 -41 -13 0 -34 -11 -47 -25 l-23
-24 72 -72 c39 -39 68 -75 65 -80 -3 -5 -29 -9 -58 -9 -48 0 -55 3 -96 45 -47
48 -77 48 -46 1 15 -24 15 -26 -3 -36 -25 -13 -101 -13 -121 0 -12 8 -13 13
-2 30 18 29 16 164 -3 180 -27 23 1 40 67 40 44 0 60 -4 65 -16z m411 -5 c35
1 77 -1 93 -4 31 -7 39 -29 14 -39 -13 -5 -15 -21 -13 -88 3 -81 4 -83 29 -86
19 -2 33 4 47 22 24 31 38 33 47 7 7 -22 -13 -71 -29 -72 -6 0 -56 0 -111 1
-104 1 -134 11 -102 34 26 20 25 171 -1 185 -11 6 -24 6 -33 1 -19 -12 -20
-150 -1 -173 22 -27 4 -37 -63 -37 -64 0 -87 12 -66 33 18 18 14 162 -4 177
-35 29 17 54 90 42 22 -3 69 -5 103 -3z m441 -34 c110 -57 107 -198 -5 -235
-48 -16 -129 -8 -161 16 -13 10 -34 40 -45 66 -20 46 -20 48 -2 85 27 53 75
83 136 83 27 0 62 -7 77 -15z m-1182 -355 c-3 -11 -1 -20 3 -20 5 0 11 8 13
18 4 15 5 15 6 0 1 -19 -14 -32 -28 -24 -9 6 -3 46 6 46 3 0 3 -9 0 -20z m-41
-1 c11 -18 -13 -32 -41 -25 -22 6 -25 9 -15 21 15 18 46 20 56 4z m121 -2 c0
-8 -6 -14 -13 -14 -7 0 -10 6 -7 14 3 7 8 13 12 13 4 0 8 -6 8 -13z m75 -9
c-7 -7 -12 -8 -12 -2 0 14 12 26 19 19 2 -3 -1 -11 -7 -17z m45 -10 c-3 -7 -5
-2 -5 12 0 14 2 19 5 13 2 -7 2 -19 0 -25z m-76 -1 c-10 -9 -11 -8 -5 6 3 10
9 15 12 12 3 -3 0 -11 -7 -18z m139 10 c0 -8 -7 -14 -15 -14 -16 0 -19 9 -8
20 11 11 23 8 23 -6z m71 -7 l24 -19 -37 -1 c-36 0 -50 15 -31 33 10 11 19 8
44 -13z"/>
<path d="M864 1514 c-4 -10 -19 -51 -34 -90 l-27 -72 36 -6 c33 -5 141 2 141
10 0 5 -92 158 -101 168 -5 5 -11 1 -15 -10z"/>
<path d="M2125 1393 c-59 -9 -85 -62 -47 -96 21 -19 79 -22 135 -6 35 9 37 12
37 50 0 23 -5 41 -12 44 -26 8 -84 12 -113 8z"/>
<path d="M1492 708 c-29 -29 -5 -129 32 -136 25 -5 36 14 36 63 0 64 -37 104
-68 73z"/>
<path d="M2562 668 c-25 -25 -2 -116 34 -136 24 -13 54 2 54 28 0 32 -31 100
-51 110 -22 12 -23 12 -37 -2z"/>
<path d="M909 2231 c-61 -47 -180 -153 -149 -134 8 6 40 30 71 55 31 25 82 61
113 79 31 19 56 37 56 41 0 19 -32 4 -91 -41z"/>
</g>
</svg>
